#N canvas 229 0 1052 850 12;
#X obj 30 420 catch~ out;
#X obj 30 860 dac~;
#N canvas -16000 -16000 131 -22 eno 1;
#X floatatom 10 30 5 0 0 0 - - - 12 0 1, f 5;
#X obj 10 60 mtof;
#X floatatom 10 90 5 0 0 0 - - - 12 0 1, f 5;
#X obj 10 120 phasor~;
#X obj 10 150 lop~ 6000;
#X obj 120 -60 tgl 25 0 empty empty empty 17 7 0 10 #191919 #e1e1e1
#e1e1e1 1 1 1;
#X obj 120 -10 metro 10000;
#X obj 120 20 bng 25 250 50 0 empty empty empty 17 7 0 10 #191919 #e1e1e1
#e1e1e1 1;
#X floatatom 160 -40 5 0 0 0 - - - 12 0 1, f 5;
#X obj 192 61 delay 2000;
#X floatatom 230 30 5 0 0 0 - - - 12 0 1, f 5;
#X msg 192 90 0 700;
#X msg 120 60 0.1 300;
#X obj 120 120 line 0 3;
#X floatatom 120 150 5 0 0 0 - - - 12 0 1, f 5;
#X obj 10 190 *~;
#X obj 10 250 throw~ out;
#X text 200 -40 durata loop;
#X text 270 30 durata nota;
#X text 50 30 nota;
#X obj 10 -100 r master_play;
#X obj 10 0 +;
#X floatatom 70 -30 5 0 0 0 - - - 12 0 1, f 5;
#X obj 10 -60 r LFO;
#X obj 160 -130 + 10000;
#X obj 268 -161 random 3000;
#X obj 268 -131 + 1000;
#X obj 160 -190 r randur;
#X obj 268 -191 r randur;
#X obj 10 220 *~ 0.8;
#X floatatom 368 29 5 0 0 0 - - - 12 0 1, f 5;
#X obj 368 59 mtof;
#X floatatom 368 89 5 0 0 0 - - - 12 0 1, f 5;
#X obj 368 119 phasor~;
#X obj 368 149 lop~ 6000;
#X obj 478 -61 tgl 25 0 empty empty empty 17 7 0 10 #191919 #e1e1e1
#e1e1e1 1 1 1;
#X obj 478 -11 metro 10000;
#X obj 478 19 bng 25 250 50 0 empty empty empty 17 7 0 10 #191919 #e1e1e1
#e1e1e1 1;
#X floatatom 518 -41 5 0 0 0 - - - 12 0 1, f 5;
#X obj 550 60 delay 2000;
#X floatatom 588 29 5 0 0 0 - - - 12 0 1, f 5;
#X msg 550 89 0 700;
#X msg 478 59 0.1 300;
#X obj 478 119 line 0 3;
#X floatatom 478 149 5 0 0 0 - - - 12 0 1, f 5;
#X obj 368 189 *~;
#X obj 368 249 throw~ out;
#X text 558 -41 durata loop;
#X text 630 30 durata nota;
#X text 410 30 nota;
#X obj 368 -1 +;
#X floatatom 428 -31 5 0 0 0 - - - 12 0 1, f 5;
#X obj 368 -61 r LFO;
#X obj 518 -131 + 10000;
#X obj 628 -161 random 3000;
#X obj 628 -131 + 1000;
#X obj 518 -191 r randur;
#X obj 628 -191 r randur;
#X obj 368 219 *~ 0.8;
#X floatatom 728 29 5 0 0 0 - - - 12 0 1, f 5;
#X obj 728 59 mtof;
#X floatatom 728 89 5 0 0 0 - - - 12 0 1, f 5;
#X obj 728 119 phasor~;
#X obj 728 149 lop~ 6000;
#X obj 838 -61 tgl 25 0 empty empty empty 17 7 0 10 #191919 #e1e1e1
#e1e1e1 1 1 1;
#X obj 838 -11 metro 10000;
#X obj 838 19 bng 25 250 50 0 empty empty empty 17 7 0 10 #191919 #e1e1e1
#e1e1e1 1;
#X floatatom 878 -41 5 0 0 0 - - - 12 0 1, f 5;
#X obj 910 60 delay 2000;
#X floatatom 948 29 5 0 0 0 - - - 12 0 1, f 5;
#X msg 910 89 0 700;
#X msg 838 59 0.1 300;
#X obj 838 119 line 0 3;
#X floatatom 838 149 5 0 0 0 - - - 12 0 1, f 5;
#X obj 728 189 *~;
#X obj 728 249 throw~ out;
#X text 918 -41 durata loop;
#X text 990 30 durata nota;
#X text 770 30 nota;
#X obj 728 -1 +;
#X floatatom 788 -31 5 0 0 0 - - - 12 0 1, f 5;
#X obj 728 -61 r LFO;
#X obj 878 -131 + 10000;
#X obj 988 -161 random 3000;
#X obj 988 -131 + 1000;
#X obj 878 -191 r randur;
#X obj 988 -191 r randur;
#X obj 728 219 *~ 0.8;
#X floatatom 10 410 5 0 0 0 - - - 12 0 1, f 5;
#X obj 10 440 mtof;
#X floatatom 10 470 5 0 0 0 - - - 12 0 1, f 5;
#X obj 10 500 phasor~;
#X obj 10 530 lop~ 6000;
#X obj 120 320 tgl 25 0 empty empty empty 17 7 0 10 #191919 #e1e1e1
#e1e1e1 1 1 1;
#X obj 120 370 metro 10000;
#X obj 120 400 bng 25 250 50 0 empty empty empty 17 7 0 10 #191919
#e1e1e1 #e1e1e1 1;
#X floatatom 160 340 5 0 0 0 - - - 12 0 1, f 5;
#X obj 192 441 delay 2000;
#X floatatom 230 410 5 0 0 0 - - - 12 0 1, f 5;
#X msg 192 470 0 700;
#X msg 120 440 0.1 300;
#X obj 120 500 line 0 3;
#X floatatom 120 530 5 0 0 0 - - - 12 0 1, f 5;
#X obj 10 570 *~;
#X obj 10 630 throw~ out;
#X text 200 340 durata loop;
#X text 270 410 durata nota;
#X text 50 410 nota;
#X obj 10 280 r master_play;
#X obj 10 380 +;
#X floatatom 70 350 5 0 0 0 - - - 12 0 1, f 5;
#X obj 10 320 r LFO;
#X obj 160 250 + 10000;
#X obj 268 219 random 3000;
#X obj 268 249 + 1000;
#X obj 160 190 r randur;
#X obj 268 189 r randur;
#X obj 10 600 *~ 0.8;
#X floatatom 368 409 5 0 0 0 - - - 12 0 1, f 5;
#X obj 368 439 mtof;
#X floatatom 368 469 5 0 0 0 - - - 12 0 1, f 5;
#X obj 368 499 phasor~;
#X obj 368 529 lop~ 6000;
#X obj 478 319 tgl 25 0 empty empty empty 17 7 0 10 #191919 #e1e1e1
#e1e1e1 1 1 1;
#X obj 478 369 metro 10000;
#X obj 478 399 bng 25 250 50 0 empty empty empty 17 7 0 10 #191919
#e1e1e1 #e1e1e1 1;
#X floatatom 518 339 5 0 0 0 - - - 12 0 1, f 5;
#X obj 550 440 delay 2000;
#X floatatom 588 409 5 0 0 0 - - - 12 0 1, f 5;
#X msg 550 469 0 700;
#X msg 478 439 0.1 300;
#X obj 478 499 line 0 3;
#X floatatom 478 529 5 0 0 0 - - - 12 0 1, f 5;
#X obj 368 569 *~;
#X obj 368 629 throw~ out;
#X text 558 339 durata loop;
#X text 630 410 durata nota;
#X text 410 410 nota;
#X obj 368 379 +;
#X floatatom 428 349 5 0 0 0 - - - 12 0 1, f 5;
#X obj 368 319 r LFO;
#X obj 518 249 + 10000;
#X obj 628 219 random 3000;
#X obj 628 249 + 1000;
#X obj 518 189 r randur;
#X obj 628 189 r randur;
#X obj 368 599 *~ 0.8;
#X floatatom 728 409 5 0 0 0 - - - 12 0 1, f 5;
#X obj 728 439 mtof;
#X floatatom 728 469 5 0 0 0 - - - 12 0 1, f 5;
#X obj 728 499 phasor~;
#X obj 728 529 lop~ 6000;
#X obj 860 320 tgl 25 0 empty empty empty 17 7 0 10 #191919 #e1e1e1
#e1e1e1 1 1 1;
#X obj 860 370 metro 10000;
#X obj 860 400 bng 25 250 50 0 empty empty empty 17 7 0 10 #191919
#e1e1e1 #e1e1e1 1;
#X floatatom 900 340 5 0 0 0 - - - 12 0 1, f 5;
#X obj 932 441 delay 2000;
#X floatatom 970 410 5 0 0 0 - - - 12 0 1, f 5;
#X msg 932 470 0 700;
#X msg 860 440 0.1 300;
#X obj 860 500 line 0 3;
#X floatatom 860 530 5 0 0 0 - - - 12 0 1, f 5;
#X obj 728 569 *~;
#X obj 728 629 throw~ out;
#X text 940 340 durata loop;
#X text 1010 410 durata nota;
#X text 770 410 nota;
#X obj 728 379 +;
#X floatatom 788 349 5 0 0 0 - - - 12 0 1, f 5;
#X obj 728 319 r LFO;
#X obj 900 250 + 10000;
#X obj 1008 219 random 3000;
#X obj 1008 249 + 1000;
#X obj 900 190 r randur;
#X obj 1008 189 r randur;
#X obj 728 599 *~ 0.8;
#X obj 70 -60 r sn1;
#X obj 430 -60 r sn2;
#X obj 788 -61 r sn3;
#X obj 70 320 r sn4;
#X obj 430 320 r sn5;
#X obj 788 319 r sn_jos;
#X obj 160 -160 random 10000;
#X obj 518 -161 random 10000;
#X obj 878 -161 random 10000;
#X obj 160 220 random 10000;
#X obj 518 219 random 10000;
#X obj 900 220 random 10000;
#X connect 0 0 1 0;
#X connect 1 0 2 0;
#X connect 2 0 3 0;
#X connect 3 0 4 0;
#X connect 4 0 15 0;
#X connect 5 0 6 0;
#X connect 6 0 7 0;
#X connect 7 0 9 0;
#X connect 7 0 12 0;
#X connect 8 0 6 1;
#X connect 9 0 11 0;
#X connect 10 0 9 1;
#X connect 11 0 13 0;
#X connect 12 0 13 0;
#X connect 13 0 14 0;
#X connect 14 0 15 1;
#X connect 15 0 29 0;
#X connect 20 0 5 0;
#X connect 20 0 35 0;
#X connect 20 0 64 0;
#X connect 21 0 0 0;
#X connect 22 0 21 1;
#X connect 23 0 21 0;
#X connect 24 0 8 0;
#X connect 25 0 26 0;
#X connect 26 0 10 0;
#X connect 27 0 182 0;
#X connect 28 0 25 0;
#X connect 29 0 16 0;
#X connect 30 0 31 0;
#X connect 31 0 32 0;
#X connect 32 0 33 0;
#X connect 33 0 34 0;
#X connect 34 0 45 0;
#X connect 35 0 36 0;
#X connect 36 0 37 0;
#X connect 37 0 39 0;
#X connect 37 0 42 0;
#X connect 38 0 36 1;
#X connect 39 0 41 0;
#X connect 40 0 39 1;
#X connect 41 0 43 0;
#X connect 42 0 43 0;
#X connect 43 0 44 0;
#X connect 44 0 45 1;
#X connect 45 0 58 0;
#X connect 50 0 30 0;
#X connect 51 0 50 1;
#X connect 52 0 50 0;
#X connect 53 0 38 0;
#X connect 54 0 55 0;
#X connect 55 0 40 0;
#X connect 56 0 183 0;
#X connect 57 0 54 0;
#X connect 58 0 46 0;
#X connect 59 0 60 0;
#X connect 60 0 61 0;
#X connect 61 0 62 0;
#X connect 62 0 63 0;
#X connect 63 0 74 0;
#X connect 64 0 65 0;
#X connect 65 0 66 0;
#X connect 66 0 68 0;
#X connect 66 0 71 0;
#X connect 67 0 65 1;
#X connect 68 0 70 0;
#X connect 69 0 68 1;
#X connect 70 0 72 0;
#X connect 71 0 72 0;
#X connect 72 0 73 0;
#X connect 73 0 74 1;
#X connect 74 0 87 0;
#X connect 79 0 59 0;
#X connect 80 0 79 1;
#X connect 81 0 79 0;
#X connect 82 0 67 0;
#X connect 83 0 84 0;
#X connect 84 0 69 0;
#X connect 85 0 184 0;
#X connect 86 0 83 0;
#X connect 87 0 75 0;
#X connect 88 0 89 0;
#X connect 89 0 90 0;
#X connect 90 0 91 0;
#X connect 91 0 92 0;
#X connect 92 0 103 0;
#X connect 93 0 94 0;
#X connect 94 0 95 0;
#X connect 95 0 97 0;
#X connect 95 0 100 0;
#X connect 96 0 94 1;
#X connect 97 0 99 0;
#X connect 98 0 97 1;
#X connect 99 0 101 0;
#X connect 100 0 101 0;
#X connect 101 0 102 0;
#X connect 102 0 103 1;
#X connect 103 0 117 0;
#X connect 108 0 93 0;
#X connect 108 0 123 0;
#X connect 108 0 152 0;
#X connect 109 0 88 0;
#X connect 110 0 109 1;
#X connect 111 0 109 0;
#X connect 112 0 96 0;
#X connect 113 0 114 0;
#X connect 114 0 98 0;
#X connect 115 0 185 0;
#X connect 116 0 113 0;
#X connect 117 0 104 0;
#X connect 118 0 119 0;
#X connect 119 0 120 0;
#X connect 120 0 121 0;
#X connect 121 0 122 0;
#X connect 122 0 133 0;
#X connect 123 0 124 0;
#X connect 124 0 125 0;
#X connect 125 0 127 0;
#X connect 125 0 130 0;
#X connect 126 0 124 1;
#X connect 127 0 129 0;
#X connect 128 0 127 1;
#X connect 129 0 131 0;
#X connect 130 0 131 0;
#X connect 131 0 132 0;
#X connect 132 0 133 1;
#X connect 133 0 146 0;
#X connect 138 0 118 0;
#X connect 139 0 138 1;
#X connect 140 0 138 0;
#X connect 141 0 126 0;
#X connect 142 0 143 0;
#X connect 143 0 128 0;
#X connect 144 0 186 0;
#X connect 145 0 142 0;
#X connect 146 0 134 0;
#X connect 147 0 148 0;
#X connect 148 0 149 0;
#X connect 149 0 150 0;
#X connect 150 0 151 0;
#X connect 151 0 162 0;
#X connect 152 0 153 0;
#X connect 153 0 154 0;
#X connect 154 0 156 0;
#X connect 154 0 159 0;
#X connect 155 0 153 1;
#X connect 156 0 158 0;
#X connect 157 0 156 1;
#X connect 158 0 160 0;
#X connect 159 0 160 0;
#X connect 160 0 161 0;
#X connect 161 0 162 1;
#X connect 162 0 175 0;
#X connect 167 0 147 0;
#X connect 168 0 167 1;
#X connect 169 0 167 0;
#X connect 170 0 155 0;
#X connect 171 0 172 0;
#X connect 172 0 157 0;
#X connect 173 0 187 0;
#X connect 174 0 171 0;
#X connect 175 0 163 0;
#X connect 176 0 22 0;
#X connect 177 0 51 0;
#X connect 178 0 80 0;
#X connect 179 0 110 0;
#X connect 180 0 139 0;
#X connect 181 0 168 0;
#X connect 182 0 24 0;
#X connect 183 0 53 0;
#X connect 184 0 82 0;
#X connect 185 0 112 0;
#X connect 186 0 141 0;
#X connect 187 0 170 0;
#X restore 150 130 pd eno;
#X obj 30 30 tgl 52 0 empty empty empty 17 7 0 10 #191919 #e1e1e1 #e1e1e1
1 1 1;
#X obj 30 90 s master_play;
#X obj 30 230 r master_play;
#X obj 30 260 metro 3;
#X obj 100 260 osc~ 4;
#X obj 30 296 snapshot~;
#X floatatom 30 330 5 0 0 0 - - - 12 0 1, f 5;
#X obj 30 360 * 0.075;
#X obj 30 390 s LFO;
#X obj 30 160 bng 25 250 50 0 empty empty empty 17 7 0 10 #191919 #e1e1e1
#e1e1e1 1;
#X obj 30 190 s randur;
#X obj 100 480 hip~ 600;
#X obj 100 510 delwrite~ delBuff 900;
#X obj 100 540 delread~ delBuff 900;
#X obj 100 570 *~ 0.9;
#X obj 100 600 lop~ 4000;
#X obj 100 630 throw~ out;
#X obj 30 130 loadbang;
#N canvas 810 0 848 393 scale 1;
#X floatatom 50 60 5 0 0 0 - - - 0 0 1, f 5;
#X obj 100 0 i 0;
#X obj 100 30 + 1;
#X obj 100 -30 bng 15 250 50 0 empty empty empty 17 7 0 10 #fcfcfc
#000000 #000000 1;
#X obj 50 120 bng 15 250 50 0 empty empty empty 17 7 0 10 #fcfcfc #000000
#000000 1;
#X obj 70 120 bng 15 250 50 0 empty empty empty 17 7 0 10 #fcfcfc #000000
#000000 1;
#X obj 90 120 bng 15 250 50 0 empty empty empty 17 7 0 10 #fcfcfc #000000
#000000 1;
#X floatatom 50 250 5 0 0 0 - - - 0 0 1, f 5;
#X floatatom 100 250 5 0 0 0 - - - 0 0 1, f 5;
#X floatatom 150 250 5 0 0 0 - - - 0 0 1, f 5;
#X floatatom 200 250 5 0 0 0 - - - 0 0 1, f 5;
#X floatatom 250 250 5 0 0 0 - - - 0 0 1, f 5;
#X floatatom 300 250 5 0 0 0 - - - 0 0 1, f 5;
#X obj 110 120 bng 15 250 50 0 empty empty empty 17 7 0 10 #fcfcfc
#000000 #000000 1;
#X obj 50 190 s sn1;
#X obj 100 190 s sn2;
#X obj 150 190 s sn3;
#X obj 200 190 s sn4;
#X obj 250 190 s sn5;
#X obj 300 190 s sn_jos;
#X obj 50 220 r sn1;
#X obj 100 220 r sn2;
#X obj 150 220 r sn3;
#X obj 200 220 r sn4;
#X obj 250 220 r sn5;
#X obj 300 220 r sn_jos;
#X obj 100 -80 tgl 15 0 empty empty empty 17 7 0 10 #fcfcfc #000000
#000000 0 1 1;
#X msg 50 150 60;
#X msg 80 150 63;
#X msg 110 150 68;
#X msg 140 150 55;
#X msg 170 150 70;
#X msg 200 150 36;
#X msg 400 150 41;
#X msg 250 150 56;
#X msg 280 150 61;
#X msg 310 150 64;
#X msg 340 150 68;
#X msg 370 150 70;
#X msg 600 150 46;
#X msg 450 150 53;
#X msg 480 150 57;
#X msg 540 150 67;
#X msg 570 150 61;
#X msg 510 150 65;
#X msg 800 150 38;
#X msg 650 150 54;
#X msg 680 150 68;
#X msg 710 150 72;
#X msg 740 150 66;
#X msg 770 150 65;
#X obj 100 60 % 4;
#X obj 100 -60 metro 30000;
#X text 140 -30 modifica astfel incat linia melodica sa fie mai calmanta
\, nu mai scary;
#X obj 30 -60 loadbang;
#X obj 100 -110 inlet;
#X obj 190 -60 inlet;
#X obj 50 90 select 0 1 2 3;
#X connect 0 0 57 0;
#X connect 1 0 2 0;
#X connect 1 0 0 0;
#X connect 2 0 51 0;
#X connect 3 0 1 0;
#X connect 4 0 27 0;
#X connect 4 0 29 0;
#X connect 4 0 28 0;
#X connect 4 0 30 0;
#X connect 4 0 31 0;
#X connect 4 0 32 0;
#X connect 5 0 34 0;
#X connect 5 0 33 0;
#X connect 5 0 38 0;
#X connect 5 0 37 0;
#X connect 5 0 36 0;
#X connect 5 0 35 0;
#X connect 6 0 40 0;
#X connect 6 0 39 0;
#X connect 6 0 43 0;
#X connect 6 0 42 0;
#X connect 6 0 44 0;
#X connect 6 0 41 0;
#X connect 13 0 46 0;
#X connect 13 0 45 0;
#X connect 13 0 50 0;
#X connect 13 0 49 0;
#X connect 13 0 48 0;
#X connect 13 0 47 0;
#X connect 20 0 7 0;
#X connect 21 0 8 0;
#X connect 22 0 9 0;
#X connect 23 0 10 0;
#X connect 24 0 11 0;
#X connect 25 0 12 0;
#X connect 26 0 52 0;
#X connect 27 0 14 0;
#X connect 28 0 15 0;
#X connect 29 0 16 0;
#X connect 30 0 17 0;
#X connect 31 0 18 0;
#X connect 32 0 19 0;
#X connect 33 0 19 0;
#X connect 34 0 14 0;
#X connect 35 0 15 0;
#X connect 36 0 16 0;
#X connect 37 0 17 0;
#X connect 38 0 18 0;
#X connect 39 0 19 0;
#X connect 40 0 14 0;
#X connect 41 0 15 0;
#X connect 42 0 17 0;
#X connect 43 0 18 0;
#X connect 44 0 16 0;
#X connect 45 0 19 0;
#X connect 46 0 14 0;
#X connect 47 0 15 0;
#X connect 48 0 16 0;
#X connect 49 0 17 0;
#X connect 50 0 18 0;
#X connect 51 0 1 1;
#X connect 52 0 3 0;
#X connect 54 0 3 0;
#X connect 55 0 26 0;
#X connect 56 0 3 0;
#X connect 57 0 4 0;
#X connect 57 1 5 0;
#X connect 57 2 6 0;
#X connect 57 3 13 0;
#X restore 150 90 pd scale;
#X obj 90 30 tgl 52 0 empty empty empty 17 7 0 10 #191919 #e1e1e1 #e1e1e1
0 1 1;
#X obj 150 30 bng 25 250 50 0 empty empty empty 17 7 0 10 #191919 #e1e1e1
#e1e1e1 1;
#X obj 290 480 delwrite~ ping 2000;
#X obj 290 600 delread4~ ping;
#X obj 430 480 delwrite~ pong 2000;
#X obj 430 600 delread4~ pong;
#X obj 290 510 hsl 128 15 100 2000 0 0 empty empty delay_time -2 -8
0 10 #fcfcfc #000000 #000000 0 1 0 1;
#X msg 290 540 \$1 100;
#X obj 290 570 line~;
#X obj 290 780 *~;
#X obj 430 810 *~;
#X obj 310 810 s~ ping;
#X obj 430 420 r~ ping;
#X obj 460 840 s~ pong;
#X obj 290 420 r~ pong;
#X floatatom 310 750 5 0 0.7 0 - - - 0 0 1, f 5;
#X floatatom 450 780 5 0 0.7 0 - - - 0 0 1, f 5;
#X obj 310 720 hsl 50 18 0 0.7 0 0 empty empty empty -2 -8 0 10 #fcfcfc
#000000 #000000 0 1 0 1;
#X obj 450 750 hsl 50 18 0 0.7 0 0 empty empty empty -2 -8 0 10 #fcfcfc
#000000 #000000 0 1 0 1;
#N canvas 33 58 1444 734 fingers 1;
#X obj 20 20 import mrpeach;
#X msg 40 80 disconnect;
#X floatatom 20 280 5 0 0 0 - - - 0 0 1, f 5;
#X obj 20 240 unpack f;
#X floatatom 270 280 5 0 0 0 - - - 0 0 1, f 5;
#X obj 270 240 unpack f;
#X obj 270 310 s h1_index;
#X floatatom 570 280 5 0 0 0 - - - 0 0 1, f 5;
#X obj 570 240 unpack f;
#X floatatom 870 280 5 0 0 0 - - - 0 0 1, f 5;
#X obj 870 240 unpack f;
#X floatatom 1160 280 5 0 0 0 - - - 0 0 1, f 5;
#X obj 1160 240 unpack f;
#X obj 20 310 s h1_thumb;
#X msg 290 80 disconnect;
#X msg 270 50 connect localhost 8051;
#X msg 20 50 connect localhost 8050;
#X msg 590 80 disconnect;
#X msg 890 80 disconnect;
#X msg 1180 80 disconnect;
#X msg 570 50 connect localhost 8052;
#X msg 870 50 connect localhost 8053;
#X msg 1160 50 connect localhost 8054;
#X obj 570 310 s h1_middle;
#X obj 870 310 s h1_ring;
#X obj 1160 310 s h1_pinky;
#X msg 40 460 disconnect;
#X floatatom 20 660 5 0 0 0 - - - 0 0 1, f 5;
#X obj 20 620 unpack f;
#X floatatom 270 660 5 0 0 0 - - - 0 0 1, f 5;
#X obj 270 620 unpack f;
#X floatatom 570 660 5 0 0 0 - - - 0 0 1, f 5;
#X obj 570 620 unpack f;
#X floatatom 870 660 5 0 0 0 - - - 0 0 1, f 5;
#X obj 870 620 unpack f;
#X floatatom 1160 660 5 0 0 0 - - - 0 0 1, f 5;
#X obj 1160 620 unpack f;
#X msg 290 460 disconnect;
#X msg 590 460 disconnect;
#X msg 890 460 disconnect;
#X msg 1180 460 disconnect;
#X msg 20 430 connect localhost 8055;
#X msg 270 430 connect localhost 8056;
#X msg 570 430 connect localhost 8057;
#X msg 870 430 connect localhost 8058;
#X msg 1160 430 connect localhost 8059;
#X obj 20 690 s h2_thumb;
#X obj 270 690 s h2_index;
#X obj 570 690 s h2_middle;
#X obj 870 690 s h2_ring;
#X obj 1160 690 s h2_pinky;
#X obj 1320 400 loadbang;
#X obj 1320 20 loadbang;
#X obj 20 120 mrpeach/udpsend;
#X obj 270 120 mrpeach/udpsend;
#X obj 570 120 mrpeach/udpsend;
#X obj 870 120 mrpeach/udpsend;
#X obj 1160 120 mrpeach/udpsend;
#X obj 20 150 mrpeach/udpreceive 8050;
#X obj 270 150 mrpeach/udpreceive 8051;
#X obj 570 150 mrpeach/udpreceive 8052;
#X obj 870 150 mrpeach/udpreceive 8053;
#X obj 1160 150 mrpeach/udpreceive 8054;
#X obj 20 180 mrpeach/unpackOSC;
#X obj 270 180 mrpeach/unpackOSC;
#X obj 570 180 mrpeach/unpackOSC;
#X obj 870 180 mrpeach/unpackOSC;
#X obj 1160 180 mrpeach/unpackOSC;
#X obj 20 210 mrpeach/routeOSC /h1:thumb_tip:y;
#X obj 270 210 mrpeach/routeOSC /h1:index_finger_tip:y;
#X obj 570 210 mrpeach/routeOSC /h1:middle_finger_tip:y;
#X obj 870 210 mrpeach/routeOSC /h1:ring_finger_tip:y;
#X obj 1160 210 mrpeach/routeOSC /h1:pinky_tip:y;
#X obj 20 500 mrpeach/udpsend;
#X obj 270 500 mrpeach/udpsend;
#X obj 570 500 mrpeach/udpsend;
#X obj 870 500 mrpeach/udpsend;
#X obj 1160 500 mrpeach/udpsend;
#X obj 20 530 mrpeach/udpreceive 8055;
#X obj 270 530 mrpeach/udpreceive 8056;
#X obj 570 530 mrpeach/udpreceive 8057;
#X obj 870 530 mrpeach/udpreceive 8058;
#X obj 1160 530 mrpeach/udpreceive 8059;
#X obj 20 560 mrpeach/unpackOSC;
#X obj 270 560 mrpeach/unpackOSC;
#X obj 570 560 mrpeach/unpackOSC;
#X obj 870 560 mrpeach/unpackOSC;
#X obj 1160 560 mrpeach/unpackOSC;
#X obj 20 590 mrpeach/routeOSC /h2:thumb_tip:y;
#X obj 270 590 mrpeach/routeOSC /h2:index_finger_tip:y;
#X obj 570 590 mrpeach/routeOSC /h2:middle_finger_tip:y;
#X obj 870 590 mrpeach/routeOSC /h2:ring_finger_tip:y;
#X obj 1160 590 mrpeach/routeOSC /h2:pinky_tip:y;
#X connect 1 0 53 0;
#X connect 2 0 13 0;
#X connect 3 0 2 0;
#X connect 4 0 6 0;
#X connect 5 0 4 0;
#X connect 7 0 23 0;
#X connect 8 0 7 0;
#X connect 9 0 24 0;
#X connect 10 0 9 0;
#X connect 11 0 25 0;
#X connect 12 0 11 0;
#X connect 14 0 54 0;
#X connect 15 0 54 0;
#X connect 16 0 53 0;
#X connect 17 0 55 0;
#X connect 18 0 56 0;
#X connect 19 0 57 0;
#X connect 20 0 55 0;
#X connect 21 0 56 0;
#X connect 22 0 57 0;
#X connect 26 0 73 0;
#X connect 27 0 46 0;
#X connect 28 0 27 0;
#X connect 29 0 47 0;
#X connect 30 0 29 0;
#X connect 31 0 48 0;
#X connect 32 0 31 0;
#X connect 33 0 49 0;
#X connect 34 0 33 0;
#X connect 35 0 50 0;
#X connect 36 0 35 0;
#X connect 37 0 74 0;
#X connect 38 0 75 0;
#X connect 39 0 76 0;
#X connect 40 0 77 0;
#X connect 41 0 73 0;
#X connect 42 0 74 0;
#X connect 43 0 75 0;
#X connect 44 0 76 0;
#X connect 45 0 77 0;
#X connect 51 0 45 0;
#X connect 51 0 44 0;
#X connect 51 0 43 0;
#X connect 51 0 42 0;
#X connect 51 0 41 0;
#X connect 52 0 22 0;
#X connect 52 0 21 0;
#X connect 52 0 20 0;
#X connect 52 0 16 0;
#X connect 52 0 15 0;
#X connect 58 0 63 0;
#X connect 59 0 64 0;
#X connect 60 0 65 0;
#X connect 61 0 66 0;
#X connect 62 0 67 0;
#X connect 63 0 68 0;
#X connect 64 0 69 0;
#X connect 65 0 70 0;
#X connect 66 0 71 0;
#X connect 67 0 72 0;
#X connect 68 0 3 0;
#X connect 69 0 5 0;
#X connect 70 0 8 0;
#X connect 71 0 10 0;
#X connect 72 0 12 0;
#X connect 78 0 83 0;
#X connect 79 0 84 0;
#X connect 80 0 85 0;
#X connect 81 0 86 0;
#X connect 82 0 87 0;
#X connect 83 0 88 0;
#X connect 84 0 89 0;
#X connect 85 0 90 0;
#X connect 86 0 91 0;
#X connect 87 0 92 0;
#X connect 88 0 28 0;
#X connect 89 0 30 0;
#X connect 90 0 32 0;
#X connect 91 0 34 0;
#X connect 92 0 36 0;
#X restore 210 130 pd fingers;
#X floatatom 210 190 5 0 0 0 - - - 0 0 1, f 5;
#X obj 290 160 r h1_index;
#X floatatom 290 190 5 0 0 0 - - - 0 0 1, f 5;
#X floatatom 370 190 5 0 0 0 - - - 0 0 1, f 5;
#X floatatom 460 190 5 0 0 0 - - - 0 0 1, f 5;
#X floatatom 540 190 5 0 0 0 - - - 0 0 1, f 5;
#X obj 210 160 r h1_thumb;
#X obj 370 160 r h1_middle;
#X obj 460 160 r h1_ring;
#X obj 540 160 r h1_pinky;
#X floatatom 210 260 5 0 0 0 - - - 0 0 1, f 5;
#X floatatom 290 260 5 0 0 0 - - - 0 0 1, f 5;
#X floatatom 370 260 5 0 0 0 - - - 0 0 1, f 5;
#X floatatom 460 260 5 0 0 0 - - - 0 0 1, f 5;
#X floatatom 540 260 5 0 0 0 - - - 0 0 1, f 5;
#X obj 210 230 r h2_thumb;
#X obj 290 230 r h2_index;
#X obj 370 230 r h2_middle;
#X obj 460 230 r h2_ring;
#X obj 540 230 r h2_pinky;
#X obj 370 320 * 2000;
#X floatatom 370 350 5 0 0 0 - - - 0 0 1, f 5;
#X obj 420 390 spigot;
#X obj 300 60 tgl 19 0 empty empty empty 17 7 0 10 #fcfcfc #000000
#000000 0 1 1;
#X floatatom 370 420 5 0 0 0 - - - 0 0 1, f 5;
#N canvas 0 0 131 -22 selection 1;
#X obj 40 20 r h2_thumb;
#X obj 40 140 moses 0.2;
#X obj 40 170 bng 15 250 50 0 empty empty empty 17 7 0 10 #fcfcfc #000000
#000000 1;
#X obj 160 210 bng 15 250 50 0 empty empty empty 17 7 0 10 #fcfcfc
#000000 #000000 1;
#X obj 200 240 + 1;
#X floatatom 160 310 5 0 0 0 - - - 0 0 1, f 5;
#X obj 160 240 int;
#X obj 160 420 bng 15 250 50 0 empty empty empty 17 7 0 10 #fcfcfc
#000000 #000000 1;
#X obj 240 420 bng 15 250 50 0 empty empty empty 17 7 0 10 #fcfcfc
#000000 #000000 1;
#X obj 320 420 bng 15 250 50 0 empty empty empty 17 7 0 10 #fcfcfc
#000000 #000000 1;
#X obj 400 420 bng 15 250 50 0 empty empty empty 17 7 0 10 #fcfcfc
#000000 #000000 1;
#X obj 480 420 bng 15 250 50 0 empty empty empty 17 7 0 10 #fcfcfc
#000000 #000000 1;
#X obj 160 550 tgl 15 0 empty empty empty 17 7 0 10 #fcfcfc #000000
#000000 0 1 1;
#X obj 240 550 tgl 15 0 empty empty empty 17 7 0 10 #fcfcfc #000000
#000000 0 1 1;
#X obj 320 550 tgl 15 0 empty empty empty 17 7 0 10 #fcfcfc #000000
#000000 0 1 1;
#X obj 400 550 tgl 15 0 empty empty empty 17 7 0 10 #fcfcfc #000000
#000000 0 1 1;
#X obj 480 550 tgl 15 0 empty empty empty 17 7 0 10 #fcfcfc #000000
#000000 0 1 1;
#X obj 160 460 delay 250;
#X obj 240 460 delay 250;
#X obj 320 460 delay 250;
#X obj 400 460 delay 250;
#X obj 480 460 delay 250;
#X obj 160 280 % 10;
#X obj 160 340 sel 0 1 2 3 4 5 6 7 8 9;
#X obj 560 420 bng 15 250 50 0 empty empty empty 17 7 0 10 #fcfcfc
#000000 #000000 1;
#X obj 640 420 bng 15 250 50 0 empty empty empty 17 7 0 10 #fcfcfc
#000000 #000000 1;
#X obj 720 420 bng 15 250 50 0 empty empty empty 17 7 0 10 #fcfcfc
#000000 #000000 1;
#X obj 800 420 bng 15 250 50 0 empty empty empty 17 7 0 10 #fcfcfc
#000000 #000000 1;
#X obj 880 420 bng 15 250 50 0 empty empty empty 17 7 0 10 #fcfcfc
#000000 #000000 1;
#X obj 560 550 tgl 15 0 empty empty empty 17 7 0 10 #fcfcfc #000000
#000000 0 1 1;
#X obj 640 550 tgl 15 0 empty empty empty 17 7 0 10 #fcfcfc #000000
#000000 0 1 1;
#X obj 720 550 tgl 15 0 empty empty empty 17 7 0 10 #fcfcfc #000000
#000000 0 1 1;
#X obj 800 550 tgl 15 0 empty empty empty 17 7 0 10 #fcfcfc #000000
#000000 0 1 1;
#X obj 880 550 tgl 15 0 empty empty empty 17 7 0 10 #fcfcfc #000000
#000000 1 1 1;
#X obj 560 460 delay 250;
#X obj 640 460 delay 250;
#X obj 720 460 delay 250;
#X obj 800 460 delay 250;
#X obj 880 460 delay 250;
#X obj 160 520 bng 15 250 50 0 empty empty empty 17 7 0 10 #fcfcfc
#000000 #000000 1;
#X obj 240 520 bng 15 250 50 0 empty empty empty 17 7 0 10 #fcfcfc
#000000 #000000 1;
#X obj 320 520 bng 15 250 50 0 empty empty empty 17 7 0 10 #fcfcfc
#000000 #000000 1;
#X obj 400 520 bng 15 250 50 0 empty empty empty 17 7 0 10 #fcfcfc
#000000 #000000 1;
#X obj 480 520 bng 15 250 50 0 empty empty empty 17 7 0 10 #fcfcfc
#000000 #000000 1;
#X obj 560 520 bng 15 250 50 0 empty empty empty 17 7 0 10 #fcfcfc
#000000 #000000 1;
#X obj 640 520 bng 15 250 50 0 empty empty empty 17 7 0 10 #fcfcfc
#000000 #000000 1;
#X obj 720 520 bng 15 250 50 0 empty empty empty 17 7 0 10 #fcfcfc
#000000 #000000 1;
#X obj 800 520 bng 15 250 50 0 empty empty empty 17 7 0 10 #fcfcfc
#000000 #000000 1;
#X obj 880 520 bng 15 250 50 0 empty empty empty 17 7 0 10 #fcfcfc
#000000 #000000 1;
#X obj 960 460 loadbang;
#X obj 130 580 s par1;
#X obj 290 580 s par2;
#X obj 450 580 s par3;
#X obj 610 580 s par4;
#X obj 770 580 s par5;
#X floatatom 40 60 5 0 0 0 - - - 0 0 1, f 5;
#X obj 40 100 + 0.1;
#X obj 40 200 delay 250;
#X connect 0 0 55 0;
#X connect 1 0 2 0;
#X connect 2 0 57 0;
#X connect 3 0 6 0;
#X connect 4 0 6 1;
#X connect 5 0 23 0;
#X connect 6 0 4 0;
#X connect 6 0 22 0;
#X connect 7 0 17 0;
#X connect 7 0 38 0;
#X connect 8 0 17 0;
#X connect 8 0 18 0;
#X connect 9 0 18 0;
#X connect 9 0 19 0;
#X connect 10 0 19 0;
#X connect 10 0 20 0;
#X connect 11 0 20 0;
#X connect 11 0 21 0;
#X connect 12 0 50 0;
#X connect 14 0 51 0;
#X connect 16 0 52 0;
#X connect 17 0 39 0;
#X connect 18 0 40 0;
#X connect 19 0 41 0;
#X connect 20 0 42 0;
#X connect 21 0 43 0;
#X connect 22 0 5 0;
#X connect 23 0 7 0;
#X connect 23 1 8 0;
#X connect 23 2 9 0;
#X connect 23 3 10 0;
#X connect 23 4 11 0;
#X connect 23 5 24 0;
#X connect 23 6 25 0;
#X connect 23 7 26 0;
#X connect 23 8 27 0;
#X connect 23 9 28 0;
#X connect 24 0 34 0;
#X connect 24 0 21 0;
#X connect 25 0 34 0;
#X connect 25 0 35 0;
#X connect 26 0 35 0;
#X connect 26 0 36 0;
#X connect 27 0 36 0;
#X connect 27 0 37 0;
#X connect 28 0 37 0;
#X connect 28 0 38 0;
#X connect 30 0 53 0;
#X connect 32 0 54 0;
#X connect 34 0 44 0;
#X connect 35 0 45 0;
#X connect 36 0 46 0;
#X connect 37 0 47 0;
#X connect 38 0 48 0;
#X connect 39 0 12 0;
#X connect 40 0 13 0;
#X connect 41 0 14 0;
#X connect 42 0 15 0;
#X connect 43 0 16 0;
#X connect 44 0 29 0;
#X connect 45 0 30 0;
#X connect 46 0 31 0;
#X connect 47 0 32 0;
#X connect 48 0 33 0;
#X connect 49 0 48 0;
#X connect 55 0 56 0;
#X connect 56 0 1 0;
#X restore 300 130 pd selection;
#X obj 300 30 r par1;
#X obj 360 60 tgl 19 0 empty empty empty 17 7 0 10 #fcfcfc #000000
#000000 0 1 1;
#X obj 420 60 tgl 19 0 empty empty empty 17 7 0 10 #fcfcfc #000000
#000000 0 1 1;
#X obj 480 60 tgl 19 0 empty empty empty 17 7 0 10 #fcfcfc #000000
#000000 0 1 1;
#X obj 540 60 tgl 19 0 empty empty empty 17 7 0 10 #fcfcfc #000000
#000000 0 1 1;
#X obj 360 30 r par2;
#X obj 420 30 r par3;
#X obj 480 30 r par4;
#X obj 540 30 r par5;
#X obj 310 690 spigot;
#X obj 450 720 spigot;
#X obj 660 370 moses 0.2;
#X obj 660 400 bng 15 250 50 0 empty empty empty 17 7 0 10 #fcfcfc
#000000 #000000 1;
#X floatatom 660 310 5 0 0 0 - - - 0 0 1, f 5;
#X obj 660 340 + 0.1;
#X obj 660 420 delay 250;
#X obj 460 360 tgl 15 0 empty empty empty 17 7 0 10 #fcfcfc #000000
#000000 1 1 1;
#X obj 490 690 tgl 15 0 empty empty empty 17 7 0 10 #fcfcfc #000000
#000000 1 1 1;
#X obj 350 660 tgl 15 0 empty empty empty 17 7 0 10 #fcfcfc #000000
#000000 1 1 1;
#X obj 120 750 osc~;
#X floatatom 120 690 5 0 0 0 - - - 0 0 1, f 5;
#X obj 80 780 *~;
#X obj 120 720 / 4;
#X obj 120 780 +~;
#X obj 170 750 osc~;
#X connect 0 0 1 0;
#X connect 0 0 24 0;
#X connect 0 0 26 0;
#X connect 0 0 14 0;
#X connect 0 0 89 0;
#X connect 0 0 1 1;
#X connect 0 0 91 0;
#X connect 3 0 4 0;
#X connect 5 0 6 0;
#X connect 6 0 8 0;
#X connect 7 0 8 0;
#X connect 8 0 9 0;
#X connect 9 0 10 0;
#X connect 10 0 11 0;
#X connect 12 0 13 0;
#X connect 14 0 15 0;
#X connect 16 0 17 0;
#X connect 17 0 18 0;
#X connect 18 0 19 0;
#X connect 20 0 12 0;
#X connect 22 0 21 0;
#X connect 23 0 21 1;
#X connect 25 0 31 0;
#X connect 27 0 32 0;
#X connect 28 0 29 0;
#X connect 29 0 30 0;
#X connect 30 0 25 0;
#X connect 30 0 27 0;
#X connect 31 0 33 0;
#X connect 31 0 1 0;
#X connect 32 0 35 0;
#X connect 32 0 1 1;
#X connect 34 0 26 0;
#X connect 36 0 24 0;
#X connect 37 0 31 1;
#X connect 38 0 32 1;
#X connect 39 0 37 0;
#X connect 40 0 38 0;
#X connect 42 0 88 0;
#X connect 43 0 44 0;
#X connect 44 0 78 0;
#X connect 45 0 62 0;
#X connect 46 0 77 0;
#X connect 47 0 92 0;
#X connect 48 0 42 0;
#X connect 49 0 45 0;
#X connect 50 0 46 0;
#X connect 51 0 47 0;
#X connect 52 0 81 0;
#X connect 57 0 52 0;
#X connect 58 0 53 0;
#X connect 59 0 54 0;
#X connect 60 0 55 0;
#X connect 61 0 56 0;
#X connect 62 0 63 0;
#X connect 63 0 64 0;
#X connect 64 0 66 0;
#X connect 66 0 28 0;
#X connect 68 0 65 0;
#X connect 73 0 69 0;
#X connect 74 0 70 0;
#X connect 75 0 71 0;
#X connect 76 0 72 0;
#X connect 77 0 39 0;
#X connect 78 0 40 0;
#X connect 79 0 80 0;
#X connect 80 0 83 0;
#X connect 81 0 82 0;
#X connect 82 0 79 0;
#X connect 83 0 84 0;
#X connect 83 0 86 0;
#X connect 83 0 85 0;
#X connect 84 0 64 1;
#X connect 85 0 78 1;
#X connect 86 0 77 1;
#X connect 87 0 89 1;
#X connect 88 0 90 0;
#X connect 89 0 1 0;
#X connect 90 0 87 0;
#X connect 92 0 91 1;
